<svg xmlns="http://www.w3.org/2000/svg" width="97" height="55" viewBox="0 0 97 55"><defs><style>.a{fill:#fff;}</style></defs><g transform="translate(-202.4 -183)"><g transform="translate(226.927 190.595)"><g transform="translate(0 24.618)"><path class="a" d="M579.057,335.175h-11.71V320.407h11.71v2.954h-7.912v2.848h6.224v2.954h-6.224v3.06h7.912Z" transform="translate(-506.584 -320.195)"/><path class="a" d="M504.338,332.116q5.782.318,7.828.316a.982.982,0,0,0,1.055-1.054v-1.9h-4.854a3.625,3.625,0,0,1-4.219-4.219v-.633a3.625,3.625,0,0,1,4.219-4.219h7.406v2.954h-6.561a1.119,1.119,0,0,0-1.266,1.266v.422a1.119,1.119,0,0,0,1.266,1.266h3.8a3.478,3.478,0,0,1,4.009,4.009v1.055a3.477,3.477,0,0,1-4.009,4.007q-1.075,0-2.278-.041l-1.941-.086q-2.152-.106-4.452-.294Z" transform="translate(-458.155 -320.195)"/><path class="a" d="M448.642,320.407h3.8v10.76a3.625,3.625,0,0,1-4.219,4.219h-4.854a3.625,3.625,0,0,1-4.219-4.219v-10.76h3.8v10.76a1.118,1.118,0,0,0,1.266,1.266h3.164a1.118,1.118,0,0,0,1.266-1.266Z" transform="translate(-408.345 -320.195)"/><path class="a" d="M385.155,330.471a3.625,3.625,0,0,1-4.219,4.219h-5.274a3.625,3.625,0,0,1-4.221-4.219v-6.751a3.626,3.626,0,0,1,4.221-4.221h5.274a3.625,3.625,0,0,1,4.219,4.221Zm-3.8-6.751a1.119,1.119,0,0,0-1.266-1.267H376.5a1.12,1.12,0,0,0-1.266,1.267v6.751a1.119,1.119,0,0,0,1.266,1.266h3.586a1.118,1.118,0,0,0,1.266-1.266Z" transform="translate(-356.461 -319.5)"/><path class="a" d="M320.217,335.175h-3.8v-6.013h-5.274v6.013h-3.8V320.407h3.8v5.8h5.274v-5.8h3.8Z" transform="translate(-307.347 -320.195)"/></g><path class="a" d="M426,215.5h4.066l3.531,7.275,3.53-7.275h4.066l-5.67,11.019v3.958h-3.852v-3.958Z" transform="translate(-398.269 -215.5)"/><path class="a" d="M375.286,230.477h-3.852V215.5h3.852v5.884h1.925l3.337-5.884h4.065l-4.194,7.382,4.173,7.6h-4.066l-3.316-6.1h-1.925Z" transform="translate(-356.457 -215.5)"/><path class="a" d="M307.54,227.375q5.863.322,7.939.321a1,1,0,0,0,1.07-1.069V224.7h-4.923a3.676,3.676,0,0,1-4.279-4.279v-.642a3.676,3.676,0,0,1,4.279-4.279h7.51v3h-6.654a1.134,1.134,0,0,0-1.284,1.284v.428a1.134,1.134,0,0,0,1.284,1.284h3.851a3.527,3.527,0,0,1,4.066,4.066v1.07a3.526,3.526,0,0,1-4.066,4.064q-1.09,0-2.31-.042l-1.969-.086q-2.183-.108-4.515-.3Z" transform="translate(-307.347 -215.5)"/></g><g transform="translate(202.4 183)"><path class="a" d="M217.591,339,202.4,354.191v3.038l15.191-15.191Z" transform="translate(-202.4 -302.229)"/><path class="a" d="M217.591,313,202.4,328.191v3.038l15.191-15.191Z" transform="translate(-202.4 -282.305)"/><path class="a" d="M217.591,247.278l-4.557-4.6,4.557-4.6V235L202.4,250.347v3.069l4.557,4.6-4.557,4.6v3.069l15.191-15.347Zm-9.114,9.208-4.557-4.6,1.519-1.535,4.557,4.6Zm3.038-3.069-4.557-4.6,1.519-1.535,4.557,4.6Zm3.038-3.069-4.557-4.6,1.519-1.535,4.557,4.6Z" transform="translate(-202.4 -222.847)"/><path class="a" d="M217.591,209,202.4,224.191v3.038l15.191-15.191Z" transform="translate(-202.4 -202.924)"/><path class="a" d="M217.591,183,202.4,198.191v3.038l15.191-15.191Z" transform="translate(-202.4 -183)"/></g></g></svg>